<?xml version="1.0" standalone="no"?>
<!DOCTYPE svg PUBLIC "-//W3C//DTD SVG 20010904//EN"
 "http://www.w3.org/TR/2001/REC-SVG-20010904/DTD/svg10.dtd">
<svg version="1.0" xmlns="http://www.w3.org/2000/svg"
 width="512.000000pt" height="512.000000pt" viewBox="0 0 512.000000 512.000000"
 preserveAspectRatio="xMidYMid meet">
<metadata>
Created by potrace 1.11, written by Peter Selinger 2001-2013
</metadata>
<g transform="translate(0.000000,512.000000) scale(0.100000,-0.100000)"
fill="#000000" stroke="none">
<path d="M0 2560 l0 -2560 2560 0 2560 0 0 2560 0 2560 -2560 0 -2560 0 0
-2560z m3911 1906 c133 -29 210 -84 258 -185 24 -51 26 -67 26 -181 0 -114 -2
-130 -26 -181 -48 -101 -136 -166 -259 -189 -30 -6 -229 -10 -461 -10 l-409 0
0 -1192 c0 -753 -4 -1226 -10 -1283 -27 -234 -179 -377 -426 -400 -88 -8 -212
14 -284 50 -68 35 -149 111 -183 173 -58 107 -57 65 -57 1414 l0 1237 -442 3
c-403 3 -448 5 -493 22 -161 60 -230 172 -229 366 1 112 24 183 79 248 43 49
138 98 215 111 30 5 635 9 1345 10 1067 0 1301 -2 1356 -13z"/>
</g>
</svg>
